<svg xmlns="http://www.w3.org/2000/svg" version="1.1" xmlns:xlink="http://www.w3.org/1999/xlink" width="512" height="512" x="0" y="0" viewBox="0 0 512.001 512.001" style="enable-background:new 0 0 512 512" xml:space="preserve" class=""><g><path d="M511.55 154.472a7.496 7.496 0 0 0-8.056-6.899 7.499 7.499 0 0 0-6.899 8.056c.279 3.61.41 7.212.402 10.801h-17.22V99.976a134.574 134.574 0 0 1 9.934 22.241 7.5 7.5 0 0 0 14.192-4.856c-5.817-17.002-14.472-32.519-25.782-46.311a153.478 153.478 0 0 0-10.149-11.218 151.333 151.333 0 0 0-11.035-9.995 7.4 7.4 0 0 0-.196-.164c-29.542-24.152-66.2-35.36-102.347-33.623-.172-.012-.344-.026-.519-.026-.498 0-.984.051-1.455.144-30.625 1.872-60.783 13.04-85.824 33.518a5.115 5.115 0 0 0-.159.134 151.257 151.257 0 0 0-11.057 10.014l-19.181 19.181c-.446.446-.907.638-1.338.686l-.076.004a2.42 2.42 0 0 1-1.095-.19c-.649-.269-1.422-.856-1.422-2.128V59.834c0-1.594-.083-3.168-.215-4.729-.009-.155-.017-.31-.035-.462-2.629-28.27-26.475-50.476-55.418-50.476-28.944 0-52.79 22.207-55.417 50.477a6.988 6.988 0 0 0-.035.461 56.036 56.036 0 0 0-.215 4.729V179.26c0 9.686-3.771 18.791-10.62 25.64l-29.741 29.737-33.549-33.547c-3.137-3.137-7.308-4.865-11.745-4.865s-8.608 1.728-11.745 4.865L4.857 219.766c-6.476 6.476-6.475 17.013 0 23.489l33.548 33.548-11.554 11.555c-8.013 8.013-9.164 20.603-2.737 29.937 50.165 72.854 112.54 135.229 185.394 185.394a23.428 23.428 0 0 0 13.317 4.144c6.06 0 12.077-2.337 16.621-6.882l16.855-16.855.004-.004.004-.004 63.112-63.112.001-.001.001-.001 148.548-148.548c31.088-31.088 46.973-74.081 43.579-117.954zM176.597 19.167c18.317 0 33.84 12.177 38.913 28.859h-77.825c5.071-16.682 20.594-28.859 38.912-28.859zm-40.665 43.86h81.332v14.358a17.253 17.253 0 0 0 10.682 15.986l.024.009v73.049h-92.038V63.027zm-.054 118.403h92.091v103.403h-34.083l-71.193-71.193c8.07-8.904 12.686-20.189 13.185-32.21zm92.091 118.404v19.082l-19.083-19.082h19.083zM15.464 232.648a1.612 1.612 0 0 1 0-2.276l18.676-18.676c.389-.389.834-.471 1.138-.471s.748.082 1.138.472l33.548 33.548-20.952 20.952-33.548-33.549zM251 468.183 107.768 324.951a7.5 7.5 0 0 0-10.606 10.607L240.394 478.79l-11.555 11.555a8.494 8.494 0 0 1-10.824.99C146.674 442.212 85.593 381.131 36.469 309.79a8.496 8.496 0 0 1 .99-10.824l11.556-11.556 23.928 23.928a7.478 7.478 0 0 0 5.303 2.197 7.474 7.474 0 0 0 5.303-2.197 7.5 7.5 0 0 0 0-10.606l-23.928-23.928 52.511-52.511 73.342 73.343.005.005 44.688 44.688 73.345 73.345L251 468.183zm63.117-63.117-71.149-71.149v-34.082h103.403v72.976h.001l-32.255 32.255zm32.255-120.232H242.969V181.43h103.403v103.404zm0-118.404H242.969V92.508a17.39 17.39 0 0 0 3.833-2.887l19.182-19.181a138.237 138.237 0 0 1 8.033-7.413h72.355V166.43zm0-118.404h-50.881c15.616-8.782 32.852-14.347 50.881-16.363v16.363zm15.001-17.219c.1 0 .2-.004.301-.004 23.557 0 46.194 5.983 66.181 17.223h-66.482V30.807zm0 32.22h87.956a137.93 137.93 0 0 1 8.034 7.413 138.739 138.739 0 0 1 7.413 8.029v87.961H361.373V63.027zm0 294.784v-57.977h57.977l-57.977 57.977zm95.99-95.991-23.014 23.014h-72.977V181.43h103.403v72.352h.001a135.486 135.486 0 0 1-7.413 8.038zm22.413-29.618V181.43h16.357a135.144 135.144 0 0 1-16.357 50.772z" fill="#c4636d" opacity="1" data-original="#000000" class=""></path><path d="M204.05 352.706c-.282-4.134-3.869-7.246-7.995-6.97a13.113 13.113 0 0 1-10.183-3.805 13.125 13.125 0 0 1-3.805-10.182 7.5 7.5 0 0 0-6.969-7.996c-4.131-.287-7.712 2.836-7.996 6.969a28.115 28.115 0 0 0 8.163 21.816 28.108 28.108 0 0 0 21.816 8.164 7.501 7.501 0 0 0 6.969-7.996zM239.799 371.388a7.5 7.5 0 0 0-10.606 0l-6.92 6.92a7.5 7.5 0 0 0 5.303 12.803 7.474 7.474 0 0 0 5.303-2.197l6.92-6.92a7.5 7.5 0 0 0 0-10.606zM156.416 288.005a7.498 7.498 0 0 0-10.606-.001l-6.92 6.921a7.5 7.5 0 0 0 5.303 12.803 7.474 7.474 0 0 0 5.303-2.197l6.92-6.92a7.5 7.5 0 0 0 0-10.606z" fill="#c4636d" opacity="1" data-original="#000000" class=""></path></g></svg>